<?xml version="1.0" ?><svg id="Layer_1" style="enable-background:new 0 0 512 512;" version="1.1" viewBox="0 0 512 512" xml:space="preserve" xmlns="http://www.w3.org/2000/svg" xmlns:xlink="http://www.w3.org/1999/xlink"><style type="text/css">
	.st0{fill:#A8B1B3;}
	.st1{fill:#D3D8D9;}
	.st2{fill:#7C8B8D;}
	.st3{fill:#FB8A8A;}
	.st4{fill:#FCB1B1;}
	.st5{fill:#F96363;}
	.st6{fill:#FFFFFF;}
	.st7{fill:#EDEDED;}
	.st8{fill:#333333;}
	.st9{fill:#FDDD8D;}
	.st10{fill:#FEE8B3;}
	.st11{fill:#FDD267;}
</style><g><g><g><path class="st0" d="M507.8,242.7v128c0,13.7-14.2,22.7-26.6,17l-86.1-39.9v-82.4l86.1-39.8C493.6,220,507.8,229,507.8,242.7z"/></g><g><path class="st1" d="M507.8,242.7v128c0,13.7-14.2,22.7-26.6,17l-5.8-2.7c4-3.4,6.7-8.4,6.7-14.4v-128c0-5.9-2.6-11-6.7-14.3     l5.8-2.7C493.6,220,507.8,229,507.8,242.7z"/></g><g><polygon class="st2" points="420.9,253.7 420.9,359.8 395.2,347.9 395.2,265.5    "/></g><g><path class="st3" d="M395.2,207.6v198.2c0,12.1-9.8,22-22,22H159.9v80.5l-80.5-80.5H25.8c-12.1,0-22-9.8-22-22V207.6     c0-12.1,9.8-22,22-22h347.4C385.3,185.7,395.2,195.5,395.2,207.6z"/></g><g><path class="st4" d="M59,427.8H25.8c-12.1,0-22-9.8-22-22V207.6c0-12.1,9.8-22,22-22H59c-12.1,0-22,9.8-22,22v198.2     C37,418,46.9,427.8,59,427.8z"/></g><g><path class="st5" d="M395.2,207.6v198.2c0,12.2-9.8,22-22,22H340c12.1,0,22-9.8,22-22V207.6c0-12.1-9.8-22-22-22h33.2     C385.3,185.7,395.2,195.5,395.2,207.6z"/></g><g><g><circle class="st6" cx="199.5" cy="306.7" r="82.6"/></g><g><path class="st7" d="M282.1,306.7c0,45.6-37,82.6-82.6,82.6c-29.3,0-55.1-15.3-69.7-38.3c12.8,8.2,28,13,44.4,13      c45.6,0,82.6-37,82.6-82.6c0-16.3-4.7-31.5-13-44.3C266.8,251.7,282.1,277.4,282.1,306.7z"/></g><g><path class="st8" d="M199.5,393.3c-47.8,0-86.6-38.9-86.6-86.6s38.9-86.6,86.6-86.6s86.6,38.9,86.6,86.6      S247.3,393.3,199.5,393.3z M199.5,228.1c-43.4,0-78.6,35.3-78.6,78.6s35.3,78.6,78.6,78.6s78.6-35.3,78.6-78.6      S242.8,228.1,199.5,228.1z"/></g><g><path class="st9" d="M243.9,315.5L191.4,355c-7.2,5.4-17.5,0.3-17.5-8.8v-79c0-9,10.3-14.1,17.5-8.7l52.5,39.5      C249.7,302.4,249.7,311.1,243.9,315.5z"/></g><g><path class="st10" d="M219.1,279.3c-0.7,1.5-1.8,2.9-3.3,4l-42,31.6v-47.6c0-9,10.3-14.2,17.6-8.8L219.1,279.3z"/></g><g><path class="st11" d="M243.9,315.5L191.4,355c-7.2,5.4-17.6,0.2-17.6-8.8v-4c1.1-0.4,2.2-0.9,3.2-1.7l52.5-39.5      c3.5-2.7,4.9-6.9,4.1-10.8l10.2,7.7C249.7,302.4,249.7,311.1,243.9,315.5z"/></g><g><path class="st8" d="M169.9,346.2v-79c0-12.3,14.1-19.3,23.9-11.9l52.5,39.5c8,6,7.9,17.9,0,23.9c0,0,0,0,0,0l-52.5,39.5      C184,365.6,169.9,358.5,169.9,346.2z M177.9,267.2v79c0,5.7,6.5,9,11.1,5.6l52.5-39.5c3.7-2.8,3.7-8.3,0-11.1L189,261.7      C184.4,258.2,177.9,261.5,177.9,267.2z"/></g></g></g><g><path class="st0" d="M366.6,95c0,50.1-40.6,90.7-90.7,90.7H94.5c-50.1,0-90.7-40.6-90.7-90.7S44.4,4.3,94.5,4.3    s90.7,40.6,90.7,90.7c0-50.1,40.6-90.7,90.7-90.7S366.6,44.9,366.6,95z"/></g><g><path class="st1" d="M121.4,185.7H94.5c-50.1,0-90.7-40.6-90.7-90.7c0-50.1,40.6-90.7,90.7-90.7c4.6,0,9.1,0.3,13.5,1    C64.2,11.8,30.7,49.4,30.7,95C30.7,145.1,71.3,185.7,121.4,185.7z"/></g><g><path class="st2" d="M366.6,95c0,50.1-40.6,90.7-90.7,90.7H249c50.1,0,90.7-40.6,90.7-90.7c0-45.5-33.6-83.2-77.2-89.7    c4.4-0.7,8.9-1,13.4-1C326,4.3,366.6,44.9,366.6,95z"/></g><path class="st8" d="M479.5,222.1l-80.4,37.2v-51.7c0-14.3-11.6-26-26-26h-59.4c33.4-14.6,56.8-47.9,56.8-86.7   c0-52.2-42.5-94.7-94.7-94.7c-42.7,0-79,28.5-90.7,67.4c-11.8-39-48-67.4-90.7-67.4C42.3,0.3-0.2,42.8-0.2,95   c0,38.8,23.4,72.1,56.8,86.7H25.8c-14.3,0-26,11.6-26,26v198.2c0,14.3,11.6,26,26,26h52l79.3,79.3c1.2,1.2,2.9,1.5,4.4,0.9   c1.5-0.6,2.5-2.1,2.5-3.7v-76.5h209.3c14.3,0,26-11.6,26-26v-51.7l80.4,37.2c15,6.9,32.3-4,32.3-20.6v-128   C511.8,226.1,494.6,215.1,479.5,222.1z M7.8,95c0-47.8,38.9-86.7,86.7-86.7c47.8,0,86.7,38.9,86.7,86.7c0,2.2,1.8,4,4,4   c2.2,0,4-1.8,4-4c0-47.8,38.9-86.7,86.7-86.7s86.7,38.9,86.7,86.7c0,47.7-38.7,86.5-86.3,86.7H94.1C46.5,181.4,7.8,142.6,7.8,95z    M391.2,405.8c0,9.9-8.1,18-18,18H159.9c-2.2,0-4,1.8-4,4v70.8l-73.7-73.7c-0.8-0.8-1.8-1.2-2.8-1.2H25.8c-9.9,0-18-8.1-18-18   V207.6c0-9.9,8.1-18,18-18h347.4c9.9,0,18,8.1,18,18V405.8z M503.8,370.7c0,10.8-11.2,17.9-20.9,13.4l-83.7-38.8v-77.2l83.7-38.8   c9.7-4.5,20.9,2.6,20.9,13.4V370.7z"/><g><g><circle class="st6" cx="94.5" cy="95" r="37.1"/></g><g><circle class="st6" cx="275.9" cy="95" r="37.1"/></g></g><g><g><path class="st7" d="M131.6,95c0,20.5-16.6,37.1-37.1,37.1c-14.4,0-27-8.2-33.1-20.3c5,2.6,10.8,4.1,16.9,4.1     c20.5,0,37.1-16.6,37.1-37.1c0-6.1-1.4-11.8-4-16.8C123.4,68,131.6,80.6,131.6,95z"/></g><g><path class="st7" d="M313,95c0,20.5-16.6,37.1-37.1,37.1c-14.4,0-26.9-8.2-33.1-20.2c5,2.6,10.8,4,16.8,4     c20.5,0,37.1-16.6,37.1-37.1c0-6.1-1.4-11.8-4-16.8C304.8,68,313,80.6,313,95z"/></g></g><g><g><path class="st8" d="M94.5,136.1c-22.7,0-41.1-18.4-41.1-41.1s18.4-41.1,41.1-41.1s41.1,18.4,41.1,41.1S117.2,136.1,94.5,136.1z      M94.5,61.9c-18.3,0-33.1,14.9-33.1,33.1s14.9,33.1,33.1,33.1s33.1-14.9,33.1-33.1S112.8,61.9,94.5,61.9z"/></g><g><path class="st8" d="M275.9,136.1c-22.7,0-41.1-18.4-41.1-41.1s18.4-41.1,41.1-41.1S317,72.3,317,95S298.6,136.1,275.9,136.1z      M275.9,61.9c-18.3,0-33.1,14.9-33.1,33.1s14.9,33.1,33.1,33.1S309,113.2,309,95S294.1,61.9,275.9,61.9z"/></g></g></g></svg>